<?xml version="1.0" encoding="UTF-8"?>
<svg width="58px" height="58px" viewBox="0 0 58 58" version="1.1" xmlns="http://www.w3.org/2000/svg" xmlns:xlink="http://www.w3.org/1999/xlink">
    <!-- Generator: Sketch 42 (36781) - http://www.bohemiancoding.com/sketch -->
    <title>email</title>
    <desc>Created with Sketch.</desc>
    <defs></defs>
    <g id="Desktop" stroke="none" stroke-width="1" fill="none" fill-rule="evenodd">
        <g id="mosaic-3_multipleupload[color]@2x-X" transform="translate(-534.000000, -133.000000)">
            <g id="email" transform="translate(533.455598, 132.000000)">
                <ellipse id="Oval-Copy-2" fill="#000000" cx="29.4922081" cy="29.6542364" rx="28.4922081" ry="28.6542364"></ellipse>
                <g id="Page-1" transform="translate(21.544402, 18.000000)" fill="#FFFFFF">
                    <path d="M15.6992957,2.98769443 L1.64022493,2.98769443 C0.867913305,2.98769443 0.234317847,2.35406888 0.234317847,1.58172058 C0.234317847,0.80937228 0.867913305,0.175746731 1.64022493,0.175746731 L15.6992957,0.175746731 C16.4716074,0.175746731 17.1052028,0.80937228 17.1052028,1.58172058 C17.1052028,2.35406888 16.4716074,2.98769443 15.6992957,2.98769443 Z" id="Fill-1"></path>
                    <path d="M16.0507725,12.2675905 L9.65483257,5.86900351 L9.65483257,5.86900351 C9.58500585,5.79964213 9.51377322,5.76308681 9.4439465,5.69325678 C9.40926746,5.65857609 9.37458842,5.65857609 9.33803484,5.6238954 C9.3033558,5.58921471 9.23165454,5.58921471 9.19697549,5.55453402 C9.16229645,5.51938468 9.09059519,5.51938468 9.05591615,5.51938468 C9.02123711,5.51938468 8.98655807,5.48470399 8.91485681,5.48470399 C8.84549872,5.48470399 8.73911842,5.4500233 8.66976034,5.4500233 C8.66976034,5.4500233 8.66976034,5.4500233 8.6350813,5.4500233 L8.6350813,5.4500233 C8.56525458,5.4500233 8.45934291,5.4500233 8.38951619,5.48470399 C8.35483715,5.48470399 8.32015811,5.51938468 8.28360453,5.51938468 C8.24892549,5.51938468 8.17722422,5.55453402 8.14254518,5.55453402 C8.10786614,5.58921471 8.03616488,5.58921471 8.00148584,5.6238954 C7.9668068,5.65857609 7.93212776,5.65857609 7.89557417,5.69325678 C7.82574745,5.72840612 7.75451483,5.79964213 7.68468811,5.86900351 C7.68468811,5.86900351 7.68468811,5.86900351 7.65000907,5.86900351 L1.28874816,12.2675905 C0.726853961,12.8295114 0.726853961,13.708245 1.28874816,14.2701659 C1.57086685,14.552298 1.92234362,14.6914894 2.27382039,14.6914894 C2.62529716,14.6914894 2.97677393,14.5504234 3.25842398,14.2701659 L7.26385326,10.2626718 L7.26385326,20.5623676 C7.26385326,21.3347159 7.89744871,21.9683414 8.66976034,21.9683414 C9.44207196,21.9683414 10.0756674,21.3347159 10.0756674,20.5623676 L10.0756674,10.2626718 L14.0829712,14.2701659 C14.3646213,14.552298 14.7160981,14.6914894 15.0675748,14.6914894 C15.4190516,14.6914894 15.7705284,14.5504234 16.0526471,14.2701659 C16.6126667,13.708245 16.6126667,12.8295114 16.0507725,12.2675905 Z" id="Fill-2"></path>
                </g>
            </g>
        </g>
    </g>
</svg>