<?xml version="1.0" encoding="UTF-8"?>
<svg width="49px" height="34px" viewBox="0 0 49 34" version="1.1" xmlns="http://www.w3.org/2000/svg" xmlns:xlink="http://www.w3.org/1999/xlink">
    <!-- Generator: Sketch 42 (36781) - http://www.bohemiancoding.com/sketch -->
    <title>Group 7</title>
    <desc>Created with Sketch.</desc>
    <defs></defs>
    <g id="Page-1" stroke="none" stroke-width="1" fill="none" fill-rule="evenodd">
        <g id="3" transform="translate(-853.000000, -243.000000)" stroke="#FFFFFF" stroke-width="0.8" fill="#FFFFFF">
            <g id="Group-7" transform="translate(516.000000, 215.000000)">
                <g id="Envelope" transform="translate(316.288610, 0.000000)">
                    <g transform="translate(20.000000, 27.000000)" id="envelope">
                        <path d="M6.40750869,1.96296296 C4.02881071,1.96296296 2.07866795,3.91924269 2.07866795,6.3054263 L2.07866795,30.1889746 C2.07866795,32.5751582 4.02881071,34.531438 6.40750869,34.531438 L44.2848652,34.531438 C46.6635632,34.531438 48.6137059,32.5751582 48.6137059,30.1889746 L48.6137059,6.3054263 C48.6137059,3.91924269 46.6635632,1.96296296 44.2848652,1.96296296 L6.40750869,1.96296296 Z M6.40750869,4.13419463 L44.2848652,4.13419463 C44.5835552,4.13419463 44.8569936,4.19933158 45.1131167,4.3035507 L26.9695022,19.7062681 C25.9522246,20.5711421 24.7033541,20.5711421 23.6889624,19.7062681 L5.57925717,4.3035507 C5.83538024,4.19933158 6.10881868,4.13419463 6.40750869,4.13419463 Z M46.4153763,6.01737623 C46.4269199,6.11291042 46.4492855,6.20627338 46.4492855,6.3054263 L46.4492855,30.1889746 C46.4492855,31.4106543 45.5027124,32.3602063 44.2848652,32.3602063 L6.40750869,32.3602063 C5.1896615,32.3602063 4.24308832,31.4106543 4.24308832,30.1889746 L4.24308832,6.3054263 C4.24308832,6.21206333 4.265454,6.12449032 4.27699758,6.03402234 L22.2856965,21.3679841 C24.0439273,22.8668577 26.6145373,22.8639627 28.3727681,21.3679841 L46.4153763,6.01737623 Z"></path>
                    </g>
                </g>
            </g>
        </g>
    </g>
</svg>