<?xml version="1.0" encoding="UTF-8"?>
<svg width="57px" height="56px" viewBox="0 0 57 56" version="1.1" xmlns="http://www.w3.org/2000/svg" xmlns:xlink="http://www.w3.org/1999/xlink">
    <!-- Generator: Sketch 42 (36781) - http://www.bohemiancoding.com/sketch -->
    <title>redo</title>
    <desc>Created with Sketch.</desc>
    <defs></defs>
    <g id="Desktop" stroke="none" stroke-width="1" fill="none" fill-rule="evenodd">
        <g id="mosaic-3_multipleupload[color]@2x" transform="translate(-516.000000, -401.000000)" stroke="#000000">
            <g id="redo" transform="translate(516.000000, 401.000000)">
                <ellipse id="Oval-Copy-2" stroke-width="2" cx="28.4658717" cy="27.6780822" rx="26.7372533" ry="26.6780822"></ellipse>
                <path d="M39.8315691,24.7016474 C39.5104806,24.3782685 38.9893109,24.3782685 38.6662257,24.7016474 L35.7181224,27.6670925 C35.6446395,21.4421485 30.5918892,16.401856 24.3873738,16.401856 C18.1381297,16.401856 13.0526316,21.5160637 13.0526316,27.8036749 C13.0526316,34.090081 18.1365322,39.2054938 24.3873738,39.2054938 C24.8430478,39.2054938 25.2112612,38.8351144 25.2112612,38.3771617 C25.2112612,37.9188072 24.8430478,37.5484278 24.3873738,37.5484278 C19.0458835,37.5484278 14.7000071,33.1765857 14.7000071,27.8036749 C14.7000071,22.4307641 19.0458835,18.058922 24.3873738,18.058922 C29.6805411,18.058922 33.994069,22.3540369 34.0703475,27.6610668 L31.1298322,24.7028526 C30.8087437,24.3798753 30.287574,24.3798753 29.9644887,24.7028526 C29.6434002,25.0262315 29.6434002,25.5504669 29.9644887,25.875051 L34.3155569,30.2517137 C34.4761011,30.4132023 34.6865658,30.49475 34.8974299,30.49475 C35.1078946,30.49475 35.3187586,30.4132023 35.4793029,30.2517137 L39.8299717,25.875051 C40.1546544,25.5488601 40.1546544,25.0246246 39.8315691,24.7016474 Z" id="Page-1" fill="#000000" transform="translate(26.563158, 27.803675) scale(-1, 1) translate(-26.563158, -27.803675) "></path>
            </g>
        </g>
    </g>
</svg>