<?xml version="1.0" encoding="UTF-8"?>
<svg width="57px" height="56px" viewBox="0 0 57 56" version="1.1" xmlns="http://www.w3.org/2000/svg" xmlns:xlink="http://www.w3.org/1999/xlink">
    <!-- Generator: Sketch 42 (36781) - http://www.bohemiancoding.com/sketch -->
    <title>share</title>
    <desc>Created with Sketch.</desc>
    <defs></defs>
    <g id="Desktop" stroke="none" stroke-width="1" fill="none" fill-rule="evenodd">
        <g id="mosaic-3_multipleupload[color]@2x" transform="translate(-441.000000, -401.000000)">
            <g id="share" transform="translate(441.000000, 401.000000)">
                <ellipse id="Oval" stroke="#FFFFFF" stroke-width="2" cx="28.6015625" cy="27.6780822" rx="26.7372533" ry="26.6780822"></ellipse>
                <path d="M21.0218739,24.4426276 C19.1694416,24.4426276 17.6666667,25.9542424 17.6666667,27.8175713 C17.6666667,29.6805403 19.1694416,31.1925151 21.0218739,31.1925151 C21.9080065,31.1925151 22.6853409,30.8408009 23.3034148,30.3008099 L30.1745213,35.5124431 C30.1480376,35.6474408 30.1480376,35.7824386 30.1480376,35.9174363 C30.1480376,37.4024116 31.3559122,38.6173913 32.8322034,38.6173913 C34.3084945,38.6173913 35.5163692,37.4024116 35.5163692,35.9174363 C35.5163692,34.4324611 34.3084945,33.2174813 32.8322034,33.2174813 C32.1876457,33.2174813 31.5710033,33.4604773 31.1139794,33.838831 L24.2428728,28.6541974 C24.3237557,28.3842019 24.3502395,28.1142064 24.3502395,27.8175713 C24.3502395,27.5205763 24.2972719,27.2505808 24.2428728,26.9805853 L31.0874956,21.7973917 C31.543088,22.2023849 32.1611619,22.4187413 32.8053617,22.4187413 C34.2816529,22.4187413 35.4895275,21.2037616 35.4895275,19.7187863 C35.4895275,18.2338111 34.2816529,17.0188313 32.8053617,17.0188313 C31.3290705,17.0188313 30.1211959,18.2338111 30.1211959,19.7187863 C30.1211959,19.8537841 30.1480376,19.9887818 30.1480376,20.1237796 L23.2751416,25.3325327 C22.6853409,24.7659022 21.8800912,24.4426276 21.0218739,24.4426276 Z" id="Page-1" fill="#FFFFFF"></path>
            </g>
        </g>
    </g>
</svg>