<?xml version="1.0" encoding="UTF-8"?>
<svg width="58px" height="58px" viewBox="0 0 58 58" version="1.1" xmlns="http://www.w3.org/2000/svg" xmlns:xlink="http://www.w3.org/1999/xlink">
    <!-- Generator: Sketch 42 (36781) - http://www.bohemiancoding.com/sketch -->
    <title>twitter</title>
    <desc>Created with Sketch.</desc>
    <defs></defs>
    <g id="Desktop" stroke="none" stroke-width="1" fill="none" fill-rule="evenodd">
        <g id="mosaic-3_multipleupload[color]@2x-X" transform="translate(-434.000000, -133.000000)">
            <g id="twitter" transform="translate(433.694981, 132.000000)">
                <ellipse id="Oval-Copy" fill="#1DA1F2" cx="29.4922081" cy="29.6542364" rx="28.4922081" ry="28.6542364"></ellipse>
                <path d="M25.3630208,40.654183 C35.4165606,40.654183 40.9143954,32.4237219 40.9143954,25.2869208 C40.9143954,25.0530465 40.9096,24.8202251 40.8988371,24.5886674 C41.965966,23.8263907 42.8936031,22.8752033 43.6254826,21.7921786 C42.6461622,22.2220189 41.5921405,22.5118083 40.4866486,22.6424873 C41.6150517,21.9739288 42.4815212,20.9158606 42.8900865,19.6547712 C41.8337205,20.2734168 40.6645035,20.7234749 39.4195197,20.9656681 C38.4220834,19.9159187 37.0015892,19.2592593 35.4297745,19.2592593 C32.4110378,19.2592593 29.9631629,21.6781373 29.9631629,24.6599564 C29.9631629,25.0838998 30.0112232,25.4959441 30.1049992,25.8914561 C25.5625081,25.6657952 21.5342934,23.5163834 18.838871,20.2484604 C18.3690317,21.0464343 18.098573,21.9739288 18.098573,22.96313 C18.098573,24.836968 19.0636139,26.4911474 20.5308896,27.4588671 C19.6343691,27.431594 18.791983,27.1881373 18.0553081,26.7831481 C18.0541359,26.8057879 18.0541359,26.8283224 18.0541359,26.8520153 C18.0541359,29.4681227 19.9383954,31.6518627 22.4392324,32.1470951 C21.980156,32.2705084 21.4971027,32.3370588 20.9983846,32.3370588 C20.6461915,32.3370588 20.3036958,32.3026253 19.9708973,32.239655 C20.6666517,34.3854866 22.684329,35.9470007 25.0770039,35.9910167 C23.2058517,37.4397531 20.8493019,38.3030138 18.2884695,38.3030138 C17.8474023,38.3030138 17.4124093,38.2780574 16.984556,38.2281445 C19.4036587,39.760069 22.2757637,40.654183 25.3630208,40.654183" id="Fill-1" fill="#FFFFFF"></path>
            </g>
        </g>
    </g>
</svg>