<?xml version="1.0" encoding="UTF-8"?>
<svg width="56px" height="56px" viewBox="0 0 56 56" version="1.1" xmlns="http://www.w3.org/2000/svg" xmlns:xlink="http://www.w3.org/1999/xlink">
    <!-- Generator: Sketch 42 (36781) - http://www.bohemiancoding.com/sketch -->
    <title>upload</title>
    <desc>Created with Sketch.</desc>
    <defs></defs>
    <g id="Desktop" stroke="none" stroke-width="1" fill="none" fill-rule="evenodd">
        <g id="mosaic-3_multipleupload[color]@2x" transform="translate(-367.000000, -401.000000)">
            <g id="upload" transform="translate(367.000000, 401.000000)">
                <ellipse id="Oval-Copy" stroke="#FFFFFF" stroke-width="2" cx="27.7372533" cy="27.6780822" rx="26.7372533" ry="26.6780822"></ellipse>
                <g id="Page-1" transform="translate(27.394737, 27.700000) scale(1, -1) translate(-27.394737, -27.700000) translate(18.894737, 17.200000)" fill="#FFFFFF">
                    <path d="M15.0627889,2.81444307 L1.57372422,2.81444307 C0.832724929,2.81444307 0.224817745,2.2175604 0.224817745,1.48999927 C0.224817745,0.762438146 0.832724929,0.165555475 1.57372422,0.165555475 L15.0627889,0.165555475 C15.8037882,0.165555475 16.4116954,0.762438146 16.4116954,1.48999927 C16.4116954,2.2175604 15.8037882,2.81444307 15.0627889,2.81444307 Z" id="Fill-1"></path>
                    <path d="M15.4000156,11.5562136 L9.26339038,5.52866989 L9.26339038,5.52866989 C9.19639469,5.46333066 9.1280501,5.42889512 9.06105441,5.36311441 C9.02778138,5.3304448 8.99450836,5.3304448 8.95943679,5.29777519 C8.92616376,5.26510557 8.85736953,5.26510557 8.82409651,5.23243596 C8.79082348,5.19932486 8.72202925,5.19932486 8.68875622,5.19932486 C8.6554832,5.19932486 8.62221017,5.16665525 8.55341594,5.16665525 C8.48686989,5.16665525 8.38480263,5.13398564 8.31825658,5.13398564 C8.31825658,5.13398564 8.31825658,5.13398564 8.28498355,5.13398564 L8.28498355,5.13398564 C8.21798786,5.13398564 8.11637024,5.13398564 8.04937456,5.16665525 C8.01610153,5.16665525 7.9828285,5.19932486 7.94775693,5.19932486 C7.91448391,5.19932486 7.84568968,5.23243596 7.81241665,5.23243596 C7.77914363,5.26510557 7.7103494,5.26510557 7.67707637,5.29777519 C7.64380334,5.3304448 7.61053032,5.3304448 7.57545875,5.36311441 C7.50846306,5.39622551 7.44011847,5.46333066 7.37312278,5.52866989 C7.37312278,5.52866989 7.37312278,5.52866989 7.33984975,5.52866989 L1.2364976,11.5562136 C0.697384646,12.0855496 0.697384646,12.913327 1.2364976,13.4426631 C1.50717817,13.7084348 1.84440478,13.8395547 2.1816314,13.8395547 C2.51885802,13.8395547 2.85608464,13.7066689 3.12631557,13.4426631 L6.96935011,9.66755675 L6.96935011,19.3699905 C6.96935011,20.0975517 7.57725729,20.6944343 8.31825658,20.6944343 C9.05925587,20.6944343 9.66716305,20.0975517 9.66716305,19.3699905 L9.66716305,9.66755675 L13.5119961,13.4426631 C13.7822271,13.7084348 14.1194537,13.8395547 14.4566803,13.8395547 C14.7939069,13.8395547 15.1311335,13.7066689 15.4018141,13.4426631 C15.9391285,12.913327 15.9391285,12.0855496 15.4000156,11.5562136 Z" id="Fill-2"></path>
                </g>
            </g>
        </g>
    </g>
</svg>