<?xml version="1.0" encoding="UTF-8"?>
<svg width="66px" height="51px" viewBox="0 0 66 51" version="1.1" xmlns="http://www.w3.org/2000/svg" xmlns:xlink="http://www.w3.org/1999/xlink">
    <!-- Generator: Sketch 42 (36781) - http://www.bohemiancoding.com/sketch -->
    <title>white camera</title>
    <desc>Created with Sketch.</desc>
    <defs></defs>
    <g id="Desktop" stroke="none" stroke-width="1" fill="none" fill-rule="evenodd">
        <g id="Artboard-2" transform="translate(-120.000000, -79.000000)" fill="#FFFFFF">
            <g id="white-camera" transform="translate(119.000000, 78.000000)">
                <path d="M33.6768638,22.2871201 C28.99318,22.2871201 25.1808792,26.0690958 25.1808792,30.715523 C25.1808792,35.3619502 28.99318,39.1439259 33.6768638,39.1439259 C38.3605476,39.1439259 42.1728484,35.3619502 42.1728484,30.715523 C42.1728484,26.0690958 38.3605476,22.2871201 33.6768638,22.2871201 Z" id="Fill-1"></path>
                <path d="M57.857743,9.96868513 L48.0546839,9.96868513 C48.0546839,5.31188447 44.2528397,1.54028224 39.5586993,1.54028224 L27.7950283,1.54028224 C23.1008879,1.54028224 19.2990437,5.31188447 19.2990437,9.96868513 L9.49598459,9.96868513 C4.80184418,9.96868513 1,13.7402874 1,18.397088 L1,43.033958 C1,47.6907587 4.80184418,51.4623609 9.49598459,51.4623609 L57.857743,51.4623609 C62.5518834,51.4623609 66.3537276,47.6907587 66.3537276,43.033958 L66.3537276,18.397088 C66.3537276,13.7402874 62.5518834,9.96868513 57.857743,9.96868513 Z M33.6768638,45.6273127 C25.3882684,45.6273127 18.6455064,38.9381864 18.6455064,30.715523 C18.6455064,22.4928596 25.3882684,15.8037333 33.6768638,15.8037333 C41.9654592,15.8037333 48.7082211,22.4928596 48.7082211,30.715523 C48.7082211,38.9381864 41.9654592,45.6273127 33.6768638,45.6273127 Z" id="Fill-2"></path>
            </g>
        </g>
    </g>
</svg>