<?xml version="1.0" encoding="utf-8"?>
<!-- Generator: Adobe Illustrator 19.1.0, SVG Export Plug-In . SVG Version: 6.00 Build 0)  -->
<svg version="1.1" id="Layer_1" xmlns="http://www.w3.org/2000/svg" xmlns:xlink="http://www.w3.org/1999/xlink" x="0px" y="0px"
	 viewBox="0 0 72.3 86.7" style="enable-background:new 0 0 72.3 86.7;" xml:space="preserve">
<style type="text/css">
	.st0{fill:#FFFFFF;}
</style>
<path class="st0" d="M36.3,86.7L36.3,86.7C-7.1,70.2,0.2,20.7,0.8,9.3C9.1,2,36.2,0,36.2,0l0,0c1.2,0.1,27,2.1,35.1,9.3
	C72,20.7,79.6,70.1,36.3,86.7z M49.2,48.9l2.1-2.6l-2-1.7l-2.5,2.6l-7.2-7.1l14.1-14.1c0,0,4.1-4.3,4.3-7.6c0,0-2.8-0.8-7.9,4.5
	l-14,13.8l-14-13.8c-5.2-5.2-7.9-4.5-7.9-4.5c0.2,3.2,4.3,7.6,4.3,7.6l14.1,14.1l-7.2,7.1L23,44.6l-2,1.7l2.1,2.6l-7.5,7.7
	c0,0-1.9,2.1-1.2,2.9c0,0,1.7,3.8,3.5,1.6l0.7-2.8c0,0,0.5-0.7,2.9-0.6c0,0,1,0,1.2-2.1l4.2-3.3l2.1,2.3l1.9-1.9l-1.8-2.1l7-7l7,7
	l-1.8,2.1l1.9,1.9l2.2-2.3l4.2,3.3c0.2,2.1,1.2,2.1,1.2,2.1c2.4-0.1,2.9,0.6,2.9,0.6l0.7,2.8c1.8,2.2,3.6-1.6,3.6-1.6
	c0.7-0.8-1.2-2.9-1.2-2.9L49.2,48.9z"/>
</svg>
