<?xml version="1.0" encoding="UTF-8"?>
<svg width="38px" height="35px" viewBox="0 0 38 35" version="1.1" xmlns="http://www.w3.org/2000/svg" xmlns:xlink="http://www.w3.org/1999/xlink">
    <!-- Generator: Sketch 42 (36781) - http://www.bohemiancoding.com/sketch -->
    <title>camera - new</title>
    <desc>Created with Sketch.</desc>
    <defs></defs>
    <g id="Desktop" stroke="none" stroke-width="1" fill="none" fill-rule="evenodd" opacity="0.750452899">
        <g id="mosaic-4[color]@2x" transform="translate(-335.000000, -86.000000)" fill="#FFFFFF">
            <g id="camera" transform="translate(330.000000, 83.000000)">
                <path d="M23.8139519,21.3849546 C21.1172854,21.3849546 18.9223244,23.4997849 18.9223244,26.0980049 C18.9223244,28.6962249 21.1172854,30.8110552 23.8139519,30.8110552 C26.5106183,30.8110552 28.7055794,28.6962249 28.7055794,26.0980049 C28.7055794,23.4997849 26.5106183,21.3849546 23.8139519,21.3849546 Z" id="Fill-1"></path>
                <path d="M37.7362763,14.4966504 L32.0920907,14.4966504 C32.0920907,11.8926297 29.9031501,9.78360009 27.2004632,9.78360009 L20.4274405,9.78360009 C17.7247536,9.78360009 15.5358131,11.8926297 15.5358131,14.4966504 L9.89162749,14.4966504 C7.18894059,14.4966504 5,16.6056799 5,19.2097006 L5,32.9863091 C5,35.5903298 7.18894059,37.6993594 9.89162749,37.6993594 L37.7362763,37.6993594 C40.4389632,37.6993594 42.6279038,35.5903298 42.6279038,32.9863091 L42.6279038,19.2097006 C42.6279038,16.6056799 40.4389632,14.4966504 37.7362763,14.4966504 Z M23.8139519,34.4364784 C19.0417303,34.4364784 15.159534,30.6960084 15.159534,26.0980049 C15.159534,21.5000014 19.0417303,17.7595313 23.8139519,17.7595313 C28.5861735,17.7595313 32.4683697,21.5000014 32.4683697,26.0980049 C32.4683697,30.6960084 28.5861735,34.4364784 23.8139519,34.4364784 Z" id="Fill-2"></path>
                <path d="M11.6310637,6.22166884 L11.6310637,3 L9.07440143,3 L9.07440143,6.22166884 L5.85273258,6.22166884 L5.85273258,8.77833116 L9.07440143,8.77833116 L9.07440143,12 L11.6310637,12 L11.6310637,8.77833116 L14.8527326,8.77833116 L14.8527326,6.22166884 L11.6310637,6.22166884 Z" id="Combined-Shape"></path>
            </g>
        </g>
    </g>
</svg>